<svg version="1.1" id="Layer_1" xmlns="http://www.w3.org/2000/svg" xmlns:xlink="http://www.w3.org/1999/xlink" x="0px" y="0px" viewBox="0 0 165.1 51.1" style="enable-background:new 0 0 165.1 51.1;" xml:space="preserve">
 <style type="text/css">
  .st0{clip-path:url(#SVGID_2_);fill:#413933;}
	.st1{clip-path:url(#SVGID_4_);fill:#413933;}
	.st2{clip-path:url(#SVGID_6_);fill:#413933;}
	.st3{clip-path:url(#SVGID_8_);fill:#413933;}
	.st4{clip-path:url(#SVGID_10_);fill:#413933;}
 </style>
 <g>
  <g>
   <defs>
    <rect id="SVGID_1_" width="165.1" height="51.1">
    </rect>
   </defs>
   <clipPath id="SVGID_2_">
    <use href="#SVGID_1_" style="overflow:visible;">
    </use>
   </clipPath>
   <path class="st0" d="M154.4,28.5c0-0.8,0.6-1.4,1.4-1.4c0.8,0,1.4,0.6,1.4,1.4c0,0.8-0.6,1.4-1.4,1.4
			C155,29.9,154.4,29.3,154.4,28.5 M156.9,28.5c0-0.7-0.5-1.2-1.2-1.2c-0.6,0-1.2,0.5-1.2,1.2c0,0.7,0.5,1.2,1.2,1.2
			C156.4,29.7,156.9,29.2,156.9,28.5 M156.5,29.3h-0.3l-0.4-0.8h-0.4v0.8h-0.2v-1.7h0.7c0.3,0,0.6,0.1,0.6,0.5
			c0,0.3-0.2,0.5-0.5,0.5L156.5,29.3z M155.9,28.4c0.2,0,0.4,0,0.4-0.3c0-0.2-0.2-0.3-0.4-0.3h-0.4v0.6H155.9z">
   </path>
  </g>
  <g>
   <defs>
    <rect id="SVGID_3_" x="8" y="6.8" width="149.1" height="38.9">
    </rect>
   </defs>
   <clipPath id="SVGID_4_">
    <use xlink:href="#SVGID_3_" style="overflow:visible;">
    </use>
   </clipPath>
   <rect x="27.4" y="7.3" class="st1" width="5.2" height="22.6">
   </rect>
   <path class="st1" d="M52.2,29.2c-2,1-3.6,1.2-4.9,1.2c-4.1,0-6.9-1.4-8.8-3.3c-2-2-3.5-4.9-3.5-8.6c0-3.6,1.5-6.5,3.5-8.5
			c2-1.9,4.9-3.3,8.4-3.3c1.5,0,3.2,0.3,5.4,1.3v6c-1.1-1.2-2.9-2.4-5.2-2.4c-1.9,0-3.4,0.6-4.6,1.8c-1.2,1.2-2.1,3.1-2.1,5.2
			c0,2.3,0.9,4,1.9,5c0.5,0.5,2.1,1.9,4.8,1.9c1.3,0,3.2-0.4,5.1-2.3V29.2z">
   </path>
   <path class="st1" d="M106.7,6.8c-4.5,0-7.3,1.8-8.8,3.3c-2,2-3.5,5.3-3.5,8.6c0,3.3,1.3,6.4,3.5,8.4c1.7,1.6,4.5,3.3,8.7,3.3
			c3.8,0,6.6-1.3,8.7-3.3c2.4-2.4,3.5-5.5,3.5-8.5c0-3.5-1.4-6.5-3.5-8.5C113.2,7.9,110.2,6.8,106.7,6.8 M111.7,23.7
			c-1.1,1.1-2.7,1.9-5,1.9c-1.7,0-3.4-0.5-4.8-1.9c-1.4-1.4-2.1-3-2.1-5.1c0-2.5,1-4.2,2-5.1c1.2-1.2,3-1.9,4.9-1.9
			c2.1,0,3.8,0.8,4.9,1.9c1,1,1.9,2.7,1.9,5.1C113.6,21.3,112.5,22.8,111.7,23.7">
   </path>
  </g>
  <g>
   <defs>
    <rect id="SVGID_5_" width="165.1" height="51.1">
    </rect>
   </defs>
   <clipPath id="SVGID_6_">
    <use xlink:href="#SVGID_5_" style="overflow:visible;">
    </use>
   </clipPath>
   <path class="st2" d="M153.9,10.4c-2.8-2.7-5.9-3.1-8.8-3.1h-2H138h0v14.6L125.8,7.3h-4.5v22.6h5.2V15.3l12.2,14.6h0.5h4h2.1
			c1.9,0,5.7-0.2,8.8-3.4c1.8-1.9,3.1-4.4,3.1-8C157.1,15,155.9,12.4,153.9,10.4 M149.6,24c-1.7,1.4-4,1.5-5.1,1.5h-1.4V11.7h1.4
			c1.6,0,3.8,0.2,5.4,1.9c0.9,0.9,1.8,2.4,1.8,4.9C151.8,21.1,150.8,23,149.6,24">
   </path>
   <path class="st2" d="M15.9,42.3h-4.8l-1.2,2.7H8l5.6-12l5.3,12h-1.9L15.9,42.3z M15.3,40.7l-1.7-3.8l-1.7,3.8H15.3z">
   </path>
   <polygon class="st2" points="21.3,45.1 23.7,32.8 27.6,41.7 31.6,32.8 33.7,45.1 31.9,45.1 30.8,38.2 27.5,45.6 24.3,38.2 
			23.1,45.1 		">
   </polygon>
   <polygon class="st2" points="42.6,35.3 38.1,35.3 38.1,38.2 42.4,38.2 42.4,39.8 38.1,39.8 38.1,43.4 42.6,43.4 42.6,45.1 
			36.4,45.1 36.4,33.7 42.6,33.7 		">
   </polygon>
   <path class="st2" d="M47.2,33.7c1.4,0,2.2,0.2,3,0.7c1.2,0.8,1.3,2.2,1.3,2.7c0,1.6-1,2.8-2.5,3.2l3.5,4.9h-2.1l-3.2-4.7h-0.3v4.7
			h-1.7V33.7H47.2z M46.9,38.9h0.5c0.5,0,2.4-0.1,2.4-1.9c0-1.6-1.5-1.8-2.3-1.8h-0.6V38.9z">
   </path>
   <rect x="54.6" y="33.7" class="st2" width="1.7" height="11.4">
   </rect>
   <path class="st2" d="M67.9,36.4c-1.2-1.1-2.4-1.3-3.1-1.3c-2.5,0-4.1,1.8-4.1,4.3c0,2.4,1.7,4.3,4.1,4.3c1.4,0,2.4-0.7,3-1.3v2.1
			c-1.1,0.7-2.3,0.9-3.1,0.9c-2,0-3.3-0.9-4-1.6C59.5,42.5,59,41,59,39.4c0-2.1,0.9-3.5,1.8-4.4c1.2-1.1,2.5-1.5,4.1-1.5
			c1,0,2,0.2,3,0.8V36.4z">
   </path>
  </g>
  <g>
   <defs>
    <rect id="SVGID_7_" x="8" y="6.8" width="149.1" height="38.9">
    </rect>
   </defs>
   <clipPath id="SVGID_8_">
    <use xlink:href="#SVGID_7_" style="overflow:visible;">
    </use>
   </clipPath>
   <path class="st3" d="M78.2,42.3h-4.8l-1.2,2.7h-1.9l5.6-12l5.3,12h-1.9L78.2,42.3z M77.5,40.7l-1.7-3.8l-1.7,3.8H77.5z">
   </path>
   <polygon class="st3" points="83.9,45.1 83.9,32.9 92,41.6 92,33.7 93.8,33.7 93.8,45.8 85.6,37.1 85.6,45.1 		">
   </polygon>
  </g>
  <g>
   <defs>
    <rect id="SVGID_9_" width="165.1" height="51.1">
    </rect>
   </defs>
   <clipPath id="SVGID_10_">
    <use xlink:href="#SVGID_9_" style="overflow:visible;">
    </use>
   </clipPath>
   <polygon class="st4" points="103,38.2 107.8,38.2 107.8,33.7 109.6,33.7 109.6,45.1 107.8,45.1 107.8,39.8 103,39.8 103,45.1 
			101.3,45.1 101.3,33.7 103,33.7 		">
   </polygon>
   <path class="st4" d="M123.8,39.4c0,3.3-2.5,5.9-5.9,5.9c-3.4,0-5.9-2.6-5.9-5.9s2.5-5.9,5.9-5.9C121.3,33.5,123.8,36,123.8,39.4
			 M122.1,39.4c0-2.5-1.7-4.3-4.1-4.3s-4.1,1.8-4.1,4.3s1.7,4.3,4.1,4.3S122.1,41.9,122.1,39.4">
   </path>
   <polygon class="st4" points="125.6,45.1 128,32.8 131.9,41.7 135.9,32.8 138,45.1 136.2,45.1 135.1,38.2 131.8,45.6 128.6,38.2 
			127.4,45.1 		">
   </polygon>
   <polygon class="st4" points="147,35.3 142.5,35.3 142.5,38.2 146.9,38.2 146.9,39.8 142.5,39.8 142.5,43.4 147,43.4 147,45.1 
			140.8,45.1 140.8,33.7 147,33.7 		">
   </polygon>
   <path class="st4" d="M155.4,36.2c-0.1-0.3-0.3-0.5-0.5-0.7c-0.4-0.3-0.7-0.4-1.2-0.4c-1,0-1.6,0.6-1.6,1.4c0,0.3,0.1,0.9,1.2,1.4
			l1.1,0.5c2.1,0.9,2.7,2,2.7,3.3c0,2.2-1.5,3.6-3.6,3.6c-1.3,0-2.1-0.5-2.7-1.1c-0.6-0.7-0.9-1.4-0.9-2.2l1.7-0.4
			c0,0.6,0.2,1.1,0.5,1.4c0.3,0.4,0.8,0.7,1.5,0.7c1,0,1.9-0.8,1.9-1.9c0-1.2-0.9-1.6-1.6-1.9l-1.1-0.5c-0.9-0.4-2.3-1.2-2.3-2.9
			c0-1.5,1.2-3,3.3-3c1.2,0,1.9,0.5,2.3,0.8c0.3,0.3,0.6,0.7,0.9,1.1L155.4,36.2z">
   </path>
   <path class="st4" d="M18.7,20.7c1.2-0.3,2.4-1,3.1-1.7c1.4-1.4,1.7-3.2,1.7-4.6c0-2.5-1-4.1-1.9-5c-1.1-1-2.9-2-5.7-2H8v22.6h5.2
			V21v-9.6h1.2c0.7,0,2,0.1,2.9,0.7c0.4,0.3,1,1,1,2.3c0,1.1-0.5,1.8-0.8,2.2c-0.9,0.9-2.2,1-3.1,1h0v5.1l4.9,7.2h6.3L18.7,20.7z">
   </path>
   <polygon class="st4" points="86.1,7.3 80.4,20.9 74.9,7.3 73.6,7.3 68.7,7.3 68.7,15.9 59.8,15.9 59.8,7.3 54.6,7.3 54.6,29.9 
			59.8,29.9 59.8,20.3 68.7,20.3 68.7,29.9 73.2,29.9 73.5,19 73.9,16.4 79.4,29.9 81.2,29.9 86.9,16.5 88.6,29.9 93.8,29.9 
			90.4,7.3 		">
   </polygon>
  </g>
 </g>
</svg>
