<svg width="60" height="60" viewBox="0 0 60 60" fill="none" xmlns="http://www.w3.org/2000/svg">
<path d="M46.8981 46.8999H39.7859V35.7616C39.7859 33.1055 39.7385 29.6864 36.0868 29.6864C32.3825 29.6864 31.8157 32.5802 31.8157 35.5682V46.8991H24.7035V23.9942H31.5312V27.1244H31.6268C33.019 24.744 35.6077 23.3222 38.3634 23.4245C45.572 23.4245 46.9011 28.1661 46.9011 34.3346L46.8981 46.8999ZM16.6785 20.8633C14.399 20.8637 12.5508 19.0161 12.5504 16.7366C12.55 14.4571 14.3976 12.6089 16.677 12.6085C18.9565 12.6081 20.8047 14.4556 20.8051 16.7352C20.8053 17.8298 20.3706 18.8797 19.5967 19.6539C18.8229 20.4281 17.7731 20.8631 16.6785 20.8633ZM20.2346 46.8999H13.115V23.9942H20.2346V46.8999ZM50.4439 6.00358H9.54107C7.60792 5.98176 6.02262 7.53029 5.99902 9.46346V50.5368C6.02181 52.4709 7.60698 54.021 9.54107 54.0007H50.4439C52.3818 54.0247 53.9732 52.4747 54 50.5368V9.4605C53.9724 7.52351 52.3809 5.97507 50.4439 6.0003" fill="black"/>
</svg>
