<svg width="228" height="76" viewBox="0 0 228 76" fill="none" xmlns="http://www.w3.org/2000/svg">
<path d="M21.74 15.8191C21.74 19.0339 20.0621 21.9707 17.9711 24.4704C14.8903 28.1534 13.018 32.865 13.018 38C13.018 43.135 14.8903 47.8463 17.9712 51.5292C20.0622 54.0289 21.74 56.9657 21.74 60.1804V69H11.3051V58.7238C11.3051 55.3533 9.6046 52.1947 6.74895 50.2607L5 49.0763V26.6419L6.74895 25.4574C9.6046 23.5235 11.3051 20.3648 11.3051 16.9943V7L21.74 7V15.8191Z" fill="#211D1D"/>
<path d="M206.504 15.8191C206.504 19.0339 208.182 21.9707 210.273 24.4704C213.354 28.1534 215.226 32.865 215.226 38C215.226 43.135 213.354 47.8463 210.273 51.5292C208.182 54.0289 206.504 56.9657 206.504 60.1804V69H216.939V58.7238C216.939 55.3533 218.64 52.1947 221.495 50.2607L223.244 49.0763V26.6419L221.495 25.4574C218.64 23.5235 216.939 20.3648 216.939 16.9943V7L206.504 7V15.8191Z" fill="#211D1D"/>
<path d="M197.197 16.6481H189.328C184.917 16.6481 180.929 19.0523 178.822 22.8009V16.6481H160.31V24.076H171.409V51.2828H160.31V58.7107H197.073V51.2828H180.302V33.4735C180.302 28.8264 184.057 25.0654 188.681 25.0654H197.197V16.6481Z" fill="#211D1D"/>
<path fill-rule="evenodd" clip-rule="evenodd" d="M134.523 15.6588C140.648 15.6588 145.669 18.0207 149.191 21.877V16.6481H156.604V58.7107H149.191V53.3759C145.639 57.2898 140.588 59.7 134.523 59.7C122.108 59.6998 114.169 49.6945 114.169 37.6791C114.169 31.6845 116.07 26.1857 119.594 22.1676C123.133 18.1331 128.254 15.6589 134.523 15.6588ZM135.51 23.8284C131.542 23.8284 128.4 25.3708 126.236 27.8281C124.058 30.3014 122.814 33.7695 122.814 37.6791C122.814 45.47 127.877 51.5298 135.51 51.5298C143.142 51.5298 148.204 45.47 148.204 37.6791C148.204 33.7695 146.961 30.3014 144.783 27.8281C142.619 25.3708 139.477 23.8284 135.51 23.8284Z" fill="#211D1D"/>
<path d="M110.462 32.7318C110.462 23.8528 103.285 16.6482 94.4237 16.6481H92.6109C88.2445 16.6482 83.639 19.0311 81.3589 22.8724V7H73.4527V58.7107H82.3452V33.4735C82.3453 31.2567 83.5016 29.1664 85.3465 27.5956C87.1936 26.023 89.6288 25.0654 91.9643 25.0654H92.3239C97.1832 25.0654 101.569 29.0326 101.569 33.7211V58.7107H110.462V32.7318Z" fill="#211D1D"/>
<path d="M60.8093 43.8543C59.8032 48.6043 55.5161 51.7774 49.6475 51.7774C41.7795 51.7774 36.5827 45.5944 36.5827 37.6791C36.5827 33.7046 37.8593 30.1764 40.0992 27.658C42.3257 25.1548 45.561 23.5814 49.6475 23.5814C55.5985 23.5814 59.8084 27.084 60.8444 31.5287L61.0678 32.4872H69.9894L69.7266 31.0274C68.139 22.2132 60.3833 15.6588 49.6475 15.6588C42.9879 15.6588 37.5358 18.1105 33.7539 22.1361C29.9817 26.1514 27.9366 31.661 27.9366 37.6791C27.9366 49.7778 36.4868 59.6999 49.6475 59.7C60.0948 59.7 68.2745 53.9478 69.7085 44.2938L69.9198 42.8716H61.0176L60.8093 43.8543Z" fill="#211D1D"/>
</svg>
