<svg width="60" height="60" viewBox="0 0 60 60" fill="none" xmlns="http://www.w3.org/2000/svg">
<path d="M30 6C16.746 6 6 16.746 6 30C6 36.628 8.686 42.628 13.03 46.97L8.458 51.542C7.55 52.45 8.194 54 9.476 54H30C43.254 54 54 43.254 54 30C54 16.746 43.254 6 30 6ZM38.776 12.398C40.984 12.398 42.774 14.188 42.774 16.396C42.774 18.606 40.984 20.396 38.776 20.396C36.884 20.396 35.298 19.082 34.882 17.318V17.322C32.588 17.646 30.818 19.622 30.818 22.004V22.018C34.37 22.152 37.618 23.152 40.19 24.744C41.136 24.018 42.318 23.584 43.604 23.584C46.698 23.584 49.208 26.092 49.208 29.188C49.208 31.422 47.898 33.35 46.006 34.25C45.83 40.762 38.732 46.002 30.012 46.002C21.29 46.002 14.202 40.768 14.016 34.262C12.108 33.368 10.788 31.432 10.788 29.186C10.788 26.09 13.298 23.582 16.394 23.582C17.684 23.582 18.872 24.018 19.818 24.752C22.368 23.172 25.58 22.17 29.098 22.022V22.002C29.098 18.676 31.624 15.934 34.858 15.588C35.234 13.766 36.844 12.398 38.776 12.398ZM22.606 29.15C21.038 29.15 19.688 30.71 19.594 32.744C19.5 34.776 20.874 35.602 22.446 35.602C24.018 35.602 25.188 34.864 25.282 32.832C25.376 30.798 24.176 29.15 22.606 29.15ZM37.418 29.15C35.846 29.15 34.648 30.798 34.742 32.832C34.836 34.866 36.01 35.602 37.578 35.602C39.148 35.602 40.524 34.776 40.43 32.744C40.338 30.71 38.988 29.15 37.418 29.15ZM30.012 37.176C28.064 37.176 26.198 37.272 24.472 37.446C24.178 37.476 23.99 37.782 24.106 38.056C25.072 40.364 27.35 41.984 30.012 41.984C32.672 41.984 34.952 40.364 35.918 38.056C36.032 37.782 35.844 37.476 35.55 37.446C33.824 37.272 31.96 37.176 30.012 37.176Z" fill="black"/>
</svg>
